# xmcd
#
# Track frame offsets: 
#        225
#        17171
#        27518
#        44569
#        58207
#        71822
#        89871
#        109414
#        126313
#        139117
#        155462
#        172070
#        192284
#        214827
#        227506
#        242434
#
# Disc length: 3429 seconds
#
# Revision: 0
# Processed by: cddbd v1.5.2PL0 Copyright (c) Steve Scherf et al.
# Submitted via: ExactAudioCopy v0.95b4
#
DISCID=f60d6210
DTITLE=Various Artist - Country  CD2
DYEAR=1900
DGENRE=Country
TTITLE0=Electric Flag featuring Mike Bloomfield/It's Not The Spotlight
TTITLE1=Commander Cody/What's Made Milwaukee Famous
TTITLE2=Boz Scaggs/Jungle Blues
TTITLE3=Alabama/Loving You Is Killing Me
TTITLE4=Razzy Bailey/Rockin' In The Parkin' Lot
TTITLE5=Billy Swan/Down By The River
TTITLE6=Tina Turner/Lovin' Him Was Easier
TTITLE7=The Mavericks/Oh What A Crying Shame
TTITLE8=Lynn Anderson/Top Of The World
TTITLE9=Lucky/You're The Reason I Can't Sleep At Night
TTITLE10=Linda Ronstadt/I'll be your Baby tonight
TTITLE11=Emylou Harris and Gram Parson/Love Hurts
TTITLE12=Juice Newton/Red Blooded American Girl
TTITLE13=The Bellamy Brothers/Let Your Love Flow
TTITLE14=Kenny Rogers/Crazy
TTITLE15=La Toya Jackson and Lee Greenwood/What You Don't Say
EXTD=
EXTT0=
EXTT1=
EXTT2=
EXTT3=
EXTT4=
EXTT5=
EXTT6=
EXTT7=
EXTT8=
EXTT9=
EXTT10=
EXTT11=
EXTT12=
EXTT13=
EXTT14=
EXTT15=
PLAYORDER=
